<svg width="53" height="53" viewBox="0 0 53 53" fill="none" xmlns="http://www.w3.org/2000/svg">
<path fill-rule="evenodd" clip-rule="evenodd" d="M2.64976 26.4999H6.33061V45.0499C6.33061 45.4013 6.47021 45.7383 6.71869 45.9868C6.96718 46.2353 7.3042 46.3749 7.65561 46.3749H42.6913C43.0427 46.3749 43.3797 46.2353 43.6282 45.9868C43.8767 45.7383 44.0163 45.4013 44.0163 45.0499V26.4999H47.6998C47.9687 26.4995 48.2312 26.4173 48.4523 26.2641C48.6734 26.1109 48.8427 25.8941 48.9376 25.6425C49.0325 25.3908 49.0486 25.1162 48.9837 24.8552C48.9188 24.5941 48.776 24.359 48.5743 24.1811L26.0493 4.30614C25.8075 4.09371 25.4966 3.97656 25.1748 3.97656C24.8529 3.97656 24.5421 4.09371 24.3003 4.30614L1.77526 24.1811C1.57353 24.359 1.43072 24.5941 1.36581 24.8552C1.30091 25.1162 1.31698 25.3908 1.4119 25.6425C1.50682 25.8941 1.67608 26.1109 1.89719 26.2641C2.1183 26.4173 2.38078 26.4995 2.64976 26.4999ZM7.65561 23.8499H6.15306L25.1748 7.06744L44.1965 23.8499H42.6939C42.3425 23.8499 42.0055 23.9895 41.757 24.238C41.5085 24.4865 41.3689 24.8235 41.3689 25.1749V43.7249H8.98326V25.1749C8.98326 24.8235 8.84366 24.4865 8.59517 24.238C8.34669 23.9895 8.00967 23.8499 7.65826 23.8499H7.65561Z" fill="white"/>
<path fill-rule="evenodd" clip-rule="evenodd" d="M28.3761 30.4751H21.7511C21.0483 30.4751 20.3742 30.7543 19.8772 31.2513C19.3803 31.7482 19.1011 32.4223 19.1011 33.1251V43.7251C19.1011 44.4279 19.3803 45.102 19.8772 45.5989C20.3742 46.0959 21.0483 46.3751 21.7511 46.3751H28.3761C29.0789 46.3751 29.7529 46.0959 30.2499 45.5989C30.7469 45.102 31.0261 44.4279 31.0261 43.7251V33.1251C31.0261 32.4223 30.7469 31.7482 30.2499 31.2513C29.7529 30.7543 29.0789 30.4751 28.3761 30.4751ZM21.7511 43.7251V33.1251H28.3761V43.7251H21.7511Z" fill="white"/>
</svg>
